<?xml version="1.0" standalone="no"?><!DOCTYPE svg PUBLIC "-//W3C//DTD SVG 1.1//EN" "http://www.w3.org/Graphics/SVG/1.1/DTD/svg11.dtd"><svg class="icon" width="200px" height="200.00px" viewBox="0 0 1024 1024" version="1.1" xmlns="http://www.w3.org/2000/svg"><path d="M512 512m-512 0a512 512 0 1 0 1024 0 512 512 0 1 0-1024 0Z" fill="#52C41A" /><path d="M424.448 320c8.533333 0 16.398222 4.622222 20.536889 12.088889l28.728889 51.754667c3.754667 6.769778 3.939556 14.961778 0.469333 21.902222l-27.676444 55.352889s8.021333 41.244444 41.585777 74.808889 74.666667 41.443556 74.666667 41.443555l55.352889-27.676444a23.480889 23.480889 0 0 1 21.902222 0.483555l51.911111 28.856889c7.452444 4.138667 12.074667 12.003556 12.074667 20.522667v59.591111c0 30.336-28.188444 52.252444-56.931556 42.552889-59.050667-19.925333-150.698667-57.870222-208.782222-115.953778-58.097778-58.097778-96.042667-149.76-115.968-208.796444-9.699556-28.743111 12.231111-56.931556 42.567111-56.931556h59.562667z" fill="#FFFFFF" /></svg>